<?xml version="1.0" encoding="UTF-8" standalone="no"?>
<svg
   xmlns:dc="http://purl.org/dc/elements/1.1/"
   xmlns:cc="http://creativecommons.org/ns#"
   xmlns:rdf="http://www.w3.org/1999/02/22-rdf-syntax-ns#"
   xmlns:svg="http://www.w3.org/2000/svg"
   xmlns="http://www.w3.org/2000/svg"
   viewBox="0 0 2560 1440"
   height="1440"
   width="2560"
   xml:space="preserve"
   id="svg10"
   version="1.1"><metadata
     id="metadata16"><rdf:RDF><cc:Work
         rdf:about=""><dc:format>image/svg+xml</dc:format><dc:type
           rdf:resource="http://purl.org/dc/dcmitype/StillImage" /><dc:title></dc:title></cc:Work></rdf:RDF></metadata><defs
     id="defs14"><clipPath
       id="clipPath26"
       clipPathUnits="userSpaceOnUse"><path
         id="path24"
         d="M 0,1080 H 1920 V 0 H 0 Z" /></clipPath></defs><g
     transform="matrix(1.3333333,0,0,-1.3333333,0,1440)"
     id="g18"><g
       id="g20"><g
         clip-path="url(#clipPath26)"
         id="g22"><g
           transform="translate(803,582.5)"
           id="g28"><path
             id="path30"
             style="fill:#000000;fill-opacity:1;fill-rule:nonzero;stroke:none"
             d="M 0,0 C -55.416,0 -100.5,45.084 -100.5,100.5 -100.5,155.916 -55.416,201 0,201 55.416,201 100.5,155.916 100.5,100.5 100.5,45.084 55.416,0 0,0" /></g><g
           transform="translate(803,784)"
           id="g32"><path
             id="path34"
             style="fill:#000000;fill-opacity:1;fill-rule:nonzero;stroke:none"
             d="m 0,0 v 0 c -55.781,0 -101,-45.219 -101,-101 0,-55.781 45.219,-101 101,-101 55.781,0 101,45.219 101,101 C 101,-45.219 55.781,0 0,0 m 0,-1 c 55.14,0 100,-44.86 100,-100 0,-55.14 -44.86,-100 -100,-100 -55.14,0 -100,44.86 -100,100 0,55.14 44.86,100 100,100" /></g><g
           transform="translate(1072,598.5)"
           id="g36"><path
             id="path38"
             style="fill:#000000;fill-opacity:1;fill-rule:nonzero;stroke:none"
             d="M 0,0 C -55.416,0 -100.5,45.084 -100.5,100.5 -100.5,155.916 -55.416,201 0,201 55.416,201 100.5,155.916 100.5,100.5 100.5,45.084 55.416,0 0,0" /></g><g
           transform="translate(1072,800)"
           id="g40"><path
             id="path42"
             style="fill:#000000;fill-opacity:1;fill-rule:nonzero;stroke:none"
             d="m 0,0 v 0 c -55.781,0 -101,-45.219 -101,-101 0,-55.781 45.219,-101 101,-101 55.781,0 101,45.219 101,101 C 101,-45.219 55.781,0 0,0 m 0,-1 c 55.141,0 100,-44.86 100,-100 0,-55.14 -44.859,-100 -100,-100 -55.141,0 -100,44.86 -100,100 0,55.14 44.859,100 100,100" /></g><g
           transform="translate(909.6362,289.4473)"
           id="g44"><path
             id="path46"
             style="fill:#ffffff;fill-opacity:1;fill-rule:nonzero;stroke:none"
             d="m 0,0 c -55.776,0 -113.796,1.287 -156.39,16.664 -47.579,17.178 -70.721,50.151 -70.746,100.805 l 37,107 v 0.084 c 0,59.967 23.352,116.343 65.754,158.745 42.403,42.403 98.779,65.755 158.746,65.755 59.967,0 116.344,-23.352 158.746,-65.755 42.402,-42.402 65.754,-98.778 65.754,-158.745 v -0.09 l 38,-102 C 296.834,68.256 270.152,33.386 215.294,15.86 165.815,0.052 99.935,0.052 41.811,0.052 L 34.364,0.053 C 28.687,0.053 22.979,0.04 17.258,0.026 11.514,0.014 5.755,0 0,0" /></g><g
           transform="translate(944,739)"
           id="g48"><path
             id="path50"
             style="fill:#000000;fill-opacity:1;fill-rule:nonzero;stroke:none"
             d="m 0,0 v 0 c -124.264,0 -225,-100.736 -225,-225 l -37,-107 c 0,-112.887 113.659,-118.053 227.636,-118.053 11.486,0 22.987,0.053 34.364,0.053 v 0 c 2.48,0 4.958,-10e-4 7.448,-10e-4 122.29,0 255.552,1.217 255.552,123.001 l -38,102 C 225,-100.736 124.264,0 0,0 m 0,-1 c 30.24,0 59.575,-5.922 87.19,-17.603 26.674,-11.282 50.63,-27.433 71.202,-48.005 20.572,-20.572 36.723,-44.528 48.005,-71.201 C 218.077,-165.424 224,-194.76 224,-225 v -0.18 l 0.062,-0.169 L 262,-327.18 c -0.03,-28.866 -7.392,-51.691 -22.5,-69.775 -13.423,-16.065 -32.63,-27.926 -58.722,-36.262 -49.405,-15.784 -115.243,-15.784 -173.33,-15.784 L 3.717,-449 H 0 c -5.676,0 -11.382,-0.013 -17.102,-0.026 -5.746,-0.013 -11.506,-0.027 -17.262,-0.027 -55.733,0 -113.703,1.284 -156.22,16.635 -22.729,8.206 -39.438,19.639 -51.08,34.953 -12.984,17.08 -19.31,38.44 -19.336,65.297 l 36.945,106.842 0.055,0.158 V -225 c 0,30.24 5.922,59.576 17.603,87.191 11.282,26.673 27.433,50.629 48.005,71.201 20.572,20.572 44.528,36.723 71.202,48.005 C -59.575,-6.922 -30.24,-1 0,-1" /></g><g
           transform="translate(868.5127,516)"
           id="g52"><path
             id="path54"
             style="fill:#000000;fill-opacity:1;fill-rule:nonzero;stroke:none"
             d="m 0,0 -38.933,0.998 c -2.775,0.841 -11.846,4.24 -16.633,13.728 -4.879597,13.217055 -0.328961,27.08893 -0.328961,27.08893 0.205,4.996 3.210961,18.05807 13.448961,28.11207 10.491,10.304 23.033,11.526 27.938,11.573 C -9.654,81.321 2.833,79.832 13.43,69.919 22.706,61.241 25.597,50.844 26.494,45.418 27.518,42.139 32.065,25.475 22.587,12.8 16.68,4.9 8.207,-0.006 0.474,-0.006 0.315,-0.006 0.158,-0.004 0,0" /></g><g
           transform="translate(854,598)"
           id="g56" /><g
           transform="translate(1055.21,523.3916)"
           id="g60"><path
             id="path62"
             style="fill:#000000;fill-opacity:1;fill-rule:nonzero;stroke:none"
             d="m 0,0 c -3.396,0 -7.187,0.053 -11.203,0.108 -20.498,0.285 -30.787,0.428 -36.111,7.306 -4.5,5.815 -5.856,16.059 -4.03,30.45 0.105,0.816 0.14,1.106 0.134,1.264 2.315,21.171 19.529,38.392 40.039,39.982 1.046,0.081 2.108,0.122 3.158,0.122 21.964,0 41.206,-17.649 43.806,-40.181 C 37.337,31.231 38.619,16.785 29.924,7.449 24.024,1.114 15.574,0 0,0" /></g><g
           transform="translate(1047.1973,603.1235)"
           id="g64"><path
             id="path66"
             style="fill:#000000;fill-opacity:1;fill-rule:nonzero;stroke:none"
             d="m 0,0 c -1.061,0 -2.13,-0.041 -3.197,-0.124 -20.637,-1.6 -38.106,-18.553 -40.5,-40.5 0.04,-1.035 -3.855,-21.851 4,-32 5.471,-7.069 15.814,-7.212 36.5,-7.5 4.09,-0.056 7.81,-0.108 11.208,-0.108 15.469,0 24.204,1.071 30.292,7.608 9.581,10.288 7.058,26.645 6,32 C 41.595,-17.16 21.768,0.002 0,0 m 0.003,0 v -1 c 10.405,0 20.572,-3.998 28.628,-11.256 8.198,-7.388 13.411,-17.503 14.679,-28.482 l 0.004,-0.04 0.007,-0.039 c 1.521,-7.687 2.794,-21.951 -5.75,-31.125 -5.773,-6.199 -14.133,-7.29 -29.56,-7.29 -3.391,0 -7.181,0.053 -11.195,0.108 -20.337,0.283 -30.545,0.424 -35.722,7.113 -4.416,5.705 -5.738,15.824 -3.929,30.078 0.094,0.738 0.133,1.053 0.138,1.253 1.135,10.303 5.791,19.97 13.113,27.226 7.257,7.193 16.655,11.573 26.464,12.333 C -2.088,-1.041 -1.039,-1 0,-1 l 0.003,1" /></g><g
           transform="translate(1060.5,408.5)"
           id="g68"><path
             id="path70"
             style="fill:#ffffff;fill-opacity:1;fill-rule:nonzero;stroke:#000000;stroke-width:1;stroke-linecap:butt;stroke-linejoin:miter;stroke-miterlimit:10;stroke-dasharray:none;stroke-opacity:1"
             d="m 0,0 -17.218,-13.885 c -8.825,-7.118 -20.114,-10.441 -31.388,-9.242 l -19.595,2.085 c -6.443,0.685 -12.635,2.872 -18.079,6.384 l -12.425,8.015 C -105.123,-2.501 -109,25 -109,25 l 0.501,-3.009 c 2.161,-12.961 -2.858,-26.077 -13.118,-34.285 L -125,-15 l -32,-8 -23.682,4.48 c -8.575,1.623 -16.25,6.354 -21.552,13.288 L -207,1" /></g><g
           transform="translate(951.5,411.9521)"
           id="g72"><path
             id="path74"
             style="fill:#000000;fill-opacity:1;fill-rule:nonzero;stroke:none"
             d="m 0,0 c -15.405,0 -31,4.31 -31,12.548 0,17.094 13.907,31 31,31 17.094,0 31,-13.906 31,-31 C 31,4.31 15.405,0 0,0" /></g><g
           transform="translate(951.5,456)"
           id="g76"><path
             id="path78"
             style="fill:#000000;fill-opacity:1;fill-rule:nonzero;stroke:none"
             d="m 0,0 v 0 c -17.397,0 -31.5,-14.104 -31.5,-31.5 0,-8.698 15.75,-13.048 31.5,-13.048 15.75,0 31.5,4.35 31.5,13.048 C 31.5,-14.104 17.396,0 0,0 m 0,-1 c 16.817,0 30.5,-13.683 30.5,-30.5 0,-7.909 -15.344,-12.048 -30.5,-12.048 -15.157,0 -30.5,4.139 -30.5,12.048 0,16.817 13.682,30.5 30.5,30.5" /></g><g
           transform="translate(853.5,538.5)"
           id="g80"><path
             id="path82"
             style="fill:#ffffff;fill-opacity:1;fill-rule:nonzero;stroke:none"
             d="m 0,0 v 0 c -7.732,0 -14,6.268 -14,14 0,7.732 6.268,14 14,14 C 7.732,28 14,21.732 14,14 14,6.268 7.732,0 0,0" /></g><g
           transform="translate(853.5,538.5)"
           id="g84"><path
             id="path86"
             style="fill:none;stroke:#000000;stroke-width:1;stroke-linecap:butt;stroke-linejoin:miter;stroke-miterlimit:10;stroke-dasharray:none;stroke-opacity:1"
             d="m 0,0 v 0 c -7.732,0 -14,6.268 -14,14 0,7.732 6.268,14 14,14 C 7.732,28 14,21.732 14,14 14,6.268 7.732,0 0,0 Z" /></g><g
           transform="translate(1041.5,541.5)"
           id="g88"><path
             id="path90"
             style="fill:#ffffff;fill-opacity:1;fill-rule:nonzero;stroke:none"
             d="m 0,0 v 0 c -7.732,0 -14,6.268 -14,14 0,7.732 6.268,14 14,14 C 7.732,28 14,21.732 14,14 14,6.268 7.732,0 0,0" /></g><g
           transform="translate(1041.5,541.5)"
           id="g92"><path
             id="path94"
             style="fill:none;stroke:#000000;stroke-width:1;stroke-linecap:butt;stroke-linejoin:miter;stroke-miterlimit:10;stroke-dasharray:none;stroke-opacity:1"
             d="m 0,0 v 0 c -7.732,0 -14,6.268 -14,14 0,7.732 6.268,14 14,14 C 7.732,28 14,21.732 14,14 14,6.268 7.732,0 0,0 Z" /></g><g
           transform="translate(1042.5127,547.5)"
           id="g96"><path
             id="path98"
             style="fill:#000000;fill-opacity:1;fill-rule:nonzero;stroke:none"
             d="m 0,0 h -3.025 c -3.307,0 -5.988,2.681 -5.988,5.987 v 3.026 c 0,3.306 2.681,5.987 5.988,5.987 H 0 C 3.307,15 5.987,12.319 5.987,9.013 V 5.987 C 5.987,2.681 3.307,0 0,0" /></g><g
           transform="translate(1042.5127,547.5)"
           id="g100"><path
             id="path102"
             style="fill:none;stroke:#000000;stroke-width:1;stroke-linecap:butt;stroke-linejoin:miter;stroke-miterlimit:10;stroke-dasharray:none;stroke-opacity:1"
             d="m 0,0 h -3.025 c -3.307,0 -5.988,2.681 -5.988,5.987 v 3.026 c 0,3.306 2.681,5.987 5.988,5.987 H 0 C 3.307,15 5.987,12.319 5.987,9.013 V 5.987 C 5.987,2.681 3.307,0 0,0 Z" /></g><g
           transform="translate(856.5698,543.5)"
           id="g104"><path
             id="path106"
             style="fill:#000000;fill-opacity:1;fill-rule:nonzero;stroke:none"
             d="m 0,0 h -5.14 c -3.275,0 -5.93,2.655 -5.93,5.93 v 5.14 c 0,3.275 2.655,5.93 5.93,5.93 H 0 c 3.275,0 5.93,-2.655 5.93,-5.93 V 5.93 C 5.93,2.655 3.275,0 0,0" /></g><g
           transform="translate(856.5698,543.5)"
           id="g108"><path
             id="path110"
             style="fill:none;stroke:#000000;stroke-width:1;stroke-linecap:butt;stroke-linejoin:miter;stroke-miterlimit:10;stroke-dasharray:none;stroke-opacity:1"
             d="m 0,0 h -5.14 c -3.275,0 -5.93,2.655 -5.93,5.93 v 5.14 c 0,3.275 2.655,5.93 5.93,5.93 H 0 c 3.275,0 5.93,-2.655 5.93,-5.93 V 5.93 C 5.93,2.655 3.275,0 0,0 Z" /></g></g></g></g></svg>